<?xml version="1.0" encoding="UTF-8"?>
<svg width="474" height="93" enable-background="new 0 -0.725 474 93" version="1.1" viewBox="0 -0.725 474 93" xml:space="preserve" xmlns="http://www.w3.org/2000/svg">
<path d="m21.66 52.8c0 2.88-1.38 5.06-4.14 6.54-2.2 1.16-4.98 1.74-8.34 1.74h-9.18c1.2-2.08 1.8-4.4 1.8-6.96v-17.82c0-2.6-0.6-4.94-1.8-7.02h8.82c2.84 0 4.959 0.5 6.36 1.5 1.6 1.16 2.4 3.12 2.4 5.88 0 2.04-0.36 3.54-1.08 4.5-0.88 0.92-1.76 1.86-2.64 2.82 1.6-0.28 3.28 0.44 5.04 2.16 1.84 1.84 2.76 4.06 2.76 6.66zm-7.62-16.02c0-3.8-2.04-5.7-6.12-5.7h-2.88v12.3h2.88c1.92 0 3.419-0.62 4.5-1.86 1.08-1.24 1.62-2.82 1.62-4.74zm3.24 15.84c0-2.24-0.96-3.98-2.88-5.22-1.72-1.08-3.88-1.62-6.48-1.62h-2.88v13.5h3.12c2.6 0 4.72-0.52 6.36-1.56 1.84-1.2 2.76-2.9 2.76-5.1zm42.54-7.68c0.08 4.64-1.53 8.62-4.83 11.94s-7.25 4.96-11.85 4.92c-4.48-0.04-8.3-1.62-11.46-4.74s-4.78-6.9-4.86-11.34c-0.08-4.72 1.6-8.76 5.04-12.12s7.52-4.94 12.24-4.74c4.36 0.2 8.05 1.84 11.07 4.92s4.57 6.8 4.65 11.16zm-5.04 0.84c0.08-3.84-0.86-7.18-2.82-10.02-2.16-3.12-4.96-4.7-8.4-4.74-3.36-0.04-6.16 1.38-8.4 4.26-2.08 2.68-3.18 5.88-3.3 9.6-0.12 3.88 0.9 7.3 3.06 10.26 2.32 3.16 5.24 4.68 8.76 4.56 3.32-0.12 6.02-1.6 8.1-4.44 1.92-2.639 2.92-5.8 3-9.48zm44.64-0.84c0.12 4.64-1.471 8.62-4.771 11.94s-7.27 4.96-11.91 4.92c-4.44-0.04-8.24-1.62-11.4-4.74s-4.78-6.9-4.859-11.34c-0.08-4.72 1.6-8.76 5.04-12.12s7.5-4.94 12.18-4.74c4.4 0.2 8.1 1.84 11.1 4.92s4.54 6.8 4.62 11.16zm-4.98 0.84c0.08-3.84-0.88-7.18-2.88-10.02-2.12-3.08-4.9-4.66-8.34-4.74-3.4-0.04-6.22 1.38-8.46 4.26-2.08 2.64-3.16 5.84-3.24 9.6-0.12 3.88 0.899 7.3 3.06 10.26 2.28 3.16 5.18 4.68 8.7 4.56 3.32-0.12 6.02-1.6 8.1-4.44 1.92-2.639 2.94-5.8 3.06-9.48zm29.34 6.78c0 2.96-1.1 5.28-3.3 6.96-2.04 1.521-4.62 2.28-7.74 2.28-2.52 0-5.16-0.48-7.92-1.44v-5.7c0.92 1.36 2.17 2.53 3.75 3.51s2.97 1.47 4.17 1.47c1.84 0 3.41-0.5 4.71-1.5s1.95-2.38 1.95-4.14-1.24-3.5-3.72-5.22c-2.24-1.52-4.5-3.04-6.78-4.56-2.48-2-3.72-4.28-3.72-6.84 0-2.64 1.02-4.76 3.06-6.36 1.88-1.44 4.2-2.16 6.96-2.16 2.2 0 4.62 0.32 7.26 0.96v5.58c-1.16-0.92-2.34-1.86-3.54-2.82-1.72-1.24-3.08-1.86-4.08-1.86-1.48 0-2.76 0.51-3.84 1.53s-1.62 2.27-1.62 3.75c0 2.04 1.24 3.9 3.72 5.58 2.32 1.48 4.64 2.94 6.96 4.38 2.48 1.88 3.72 4.081 3.72 6.6zm26.94 2.04l-0.9 6.48h-18.06c1.24-2.12 1.86-4.46 1.86-7.02v-17.82c0-2.64-0.62-4.96-1.86-6.96h18.18v6.12c-0.88-0.88-1.8-1.79-2.76-2.729s-2.02-1.41-3.18-1.41h-5.94v12.96h5.46c0.72 0 1.479-0.38 2.28-1.14 0.6-0.64 1.22-1.26 1.86-1.86v7.44l-2.16-1.92c-0.601-0.52-1.46-0.78-2.58-0.78h-4.86v13.26h6.54c0.72 0 1.84-0.66 3.36-1.98 0.92-0.881 1.84-1.761 2.76-2.641zm34.86-25.32c-2.88 2.52-7.58 8.66-14.1 18.42v6.42c0 2.64 0.6 4.96 1.8 6.96h-7.98c1.2-2 1.8-4.32 1.8-6.96v-5.22c-2.12-3.399-4.22-6.779-6.3-10.14-2.96-4.48-5.5-7.64-7.62-9.48h9.36c-0.8 1.12-1.2 1.88-1.2 2.28 0 0.56 1.38 2.96 4.14 7.2 1.56 2.4 3.14 4.78 4.74 7.14 1.56-2.399 3.12-4.819 4.68-7.26 2.68-4.16 4.02-6.54 4.02-7.14 0-0.479-0.36-1.22-1.08-2.22h7.74zm124.32 31.8h-7.98c1.24-2.08 1.859-4.4 1.859-6.96v-8.4h-15.779v8.64c0 2.521 0.6 4.76 1.8 6.72h-7.98c1.2-2.08 1.8-4.4 1.8-6.96v-17.82c0-2.6-0.6-4.94-1.8-7.02h7.98c-1.2 2-1.8 4.24-1.8 6.72v7.68h15.779v-7.38c0-2.6-0.619-4.94-1.859-7.02h7.98c-1.16 2-1.74 4.24-1.74 6.72v18.36c0 2.52 0.58 4.76 1.74 6.72zm34.98 0h-7.681c0.6-0.72 0.9-1.66 0.9-2.82 0-0.64-0.48-2.12-1.439-4.44-0.601-1.44-1.201-2.9-1.801-4.38h-10.02c0 0.08-0.66 1.58-1.98 4.5-0.88 1.96-1.32 3.44-1.32 4.44 0 1.2 0.301 2.101 0.9 2.7h-6.42c1.28-1.2 2.68-3.56 4.2-7.08 2.84-6.52 6.3-14.58 10.38-24.18l10.2 24.3c0.8 1.84 1.36 3.08 1.681 3.72 0.719 1.36 1.52 2.44 2.4 3.24zm-10.74-13.68l-3.72-10.38-4.74 10.38h8.46zm55.08-18.12c-1.56 1.64-2.7 3.52-3.42 5.64l-8.94 26.16h-1.02l-9.18-22.26-10.02 22.26h-0.72l-9-26.52c-0.48-1.48-0.82-2.42-1.02-2.82-0.48-1-1.061-1.82-1.74-2.46h8.279c-0.959 1.08-1.439 2.04-1.439 2.88 0 1.12 0.9 4.38 2.699 9.78 2.32 6.88 3.48 10.36 3.48 10.44 1.04-2.08 4.199-9.18 9.48-21.3h1.32l8.459 21.3c0.16-0.52 1.439-4.06 3.84-10.62 2.08-5.6 3.121-8.86 3.121-9.78 0-0.76-0.441-1.66-1.32-2.7h7.141zm13.139 31.8h-7.32c1.16-1.92 1.74-4.24 1.74-6.96v-17.82c0-2.72-0.58-5.06-1.74-7.02h7.32c-1.199 2-1.8 4.24-1.8 6.72v18.36c1e-3 2.52 0.601 4.76 1.8 6.72zm20.161 0h-6.779l-14.042-14.58-1.199-0.12v-1.68c2.16-2.24 4.3-4.48 6.42-6.72 3.641-3.84 5.641-6.08 6-6.72 0.08-0.16 0.119-0.32 0.119-0.48 0-0.4-0.26-0.9-0.779-1.5h7.381c-2.201 1.28-4.82 3.66-7.861 7.14-2.279 2.64-4.539 5.26-6.779 7.86l12.359 12.18c0.801 0.84 1.6 1.68 2.4 2.52 0.96 0.92 1.88 1.62 2.76 2.1zm24.66-5.7l-0.959 5.7h-18.602c1.201-2.12 1.801-4.46 1.801-7.02v-17.82c0-2.64-0.6-4.96-1.801-6.96h18.721v5.94c-1.08-0.84-2.16-1.7-3.24-2.58-1.4-0.92-2.68-1.38-3.84-1.38h-5.4v12.72h4.861c1.238 0 3.02-0.84 5.34-2.52v7.02c-1.561-1.08-2.48-1.7-2.76-1.86-0.881-0.44-1.941-0.66-3.182-0.66h-4.26v13.26h6c0.801 0 2.08-0.48 3.84-1.44 1.522-0.88 2.682-1.68 3.481-2.4zm26.58-2.82c0 2.96-1.1 5.28-3.299 6.96-2 1.521-4.561 2.28-7.682 2.28-2.559 0-5.219-0.48-7.979-1.44v-5.7c1.238 1 2.479 1.98 3.719 2.94 1.84 1.36 3.24 2.04 4.201 2.04 1.879 0 3.459-0.5 4.738-1.5 1.281-1 1.922-2.38 1.922-4.14s-1.221-3.5-3.66-5.22c-2.281-1.52-4.561-3.04-6.84-4.56-2.441-2-3.66-4.28-3.66-6.84 0-2.64 1.02-4.76 3.059-6.36 1.881-1.44 4.201-2.16 6.961-2.16 2.16 0 4.58 0.32 7.26 0.96v5.58c-1.199-0.92-2.381-1.86-3.539-2.82-1.762-1.24-3.121-1.86-4.08-1.86-1.521 0-2.811 0.51-3.871 1.53s-1.59 2.27-1.59 3.75c0 2.04 1.24 3.9 3.721 5.58 2.318 1.48 4.619 2.94 6.898 4.38 2.481 1.88 3.721 4.081 3.721 6.6z"/>
<path d="m275.52 16.5c0.08 0.6 0.12 1.18 0.12 1.74 0 1.64-0.34 3.12-1.02 4.44-0.4 0.76-1.2 1.9-2.4 3.42-1.96 2.48-5 4.7-9.12 6.66-3.4 1.6-6.94 2.78-10.62 3.54 2.04 0.6 4.359 2.2 6.96 4.8 3.439 3.44 5.379 7.24 5.82 11.4 0.12 1.28 0.18 2.58 0.18 3.9 0 4.28-0.68 8.52-2.04 12.72-1.2 3.76-2.78 7-4.74 9.72-2.96 4.08-7.18 7.28-12.66 9.6-4.88 2.08-10.081 3.2-15.6 3.36-5.96 0.2-11.42-1.081-16.38-3.84-5.44-3-9.98-7.1-13.62-12.3-3.96-5.68-5.94-11.52-5.94-17.52 0-7.12 1.98-13.96 5.94-20.52 4.8-7.92 11.28-12.6 19.44-14.04-2.521-2.2-3.96-3.52-4.32-3.96-1.521-1.8-2.44-3.98-2.76-6.54-0.32-2.64 0.64-5.32 2.88-8.04 2.84-3.36 6.82-5.04 11.94-5.04 2.4 0 4.44 0.26 6.12 0.78 1.36 0.44 2.72 0.88 4.08 1.32v8.82c-2.08-2.28-3.68-3.8-4.8-4.56-1.601-1.12-3.4-1.68-5.4-1.68-2.48 0-4.46 0.66-5.94 1.98-1.6 1.4-2.44 3.46-2.52 6.18-0.2 5.88 2.38 9.121 7.74 9.72l-0.72 3.48c-6.84 0.76-12.36 3.62-16.56 8.58-5 5.8-7.34 13.76-7.02 23.88 0.12 3.88 1.14 7.94 3.06 12.18 2.2 4.92 5.18 8.86 8.94 11.82 4.48 3.52 9.66 5.28 15.54 5.28 11.64 0 20.1-4.9 25.38-14.7 2.12-3.92 3.18-9.22 3.18-15.9 0-2.32-0.18-4.4-0.54-6.24-0.64-3.28-2.22-6.12-4.74-8.52-1.92-1.84-3.96-3.14-6.12-3.9-5.64 0-9.54 1.66-11.7 4.98-1.36 2.12-1.9 4.48-1.62 7.08 0.12 1 0.439 2.14 0.959 3.42s1.06 2.56 1.621 3.84h-6.84c-1.12-3.439-1.68-5.859-1.68-7.26 0-0.52 0.04-0.979 0.12-1.38 1.48-7.48 7.88-12.26 19.2-14.34 3.44-0.64 5.78-1.14 7.02-1.5 3.96-1.16 6.91-2.74 8.85-4.74s3.31-3.68 4.11-5.04c1.08-1.84 1.62-3.72 1.62-5.64 0-0.439-0.02-0.879-0.06-1.32 0.04-0.84-0.1-2.02-0.42-3.54h6.72c0.24 0.52 0.36 1.1 0.36 1.74v1.68z" fill="#2A8C92"/>
</svg>
